# xmcd
#
# Track frame offsets:
#	150
#	16810
#	35225
#	52106
#	69468
#	88530
#	108375
#	123397
#	145096
#	162679
#	177905
#	193707
#	207443
#	225299
#	240825
#	257574
#	272973
#	286992
#	304117
#	323962
#
# Disc length: 4504 seconds
#
# Revision: 1
# Processed by: cddbd v1.5.2PL0 Copyright (c) Steve Scherf et al.
# Submitted via: audiograbber 1.83.01
#
DISCID=21119614
DTITLE=Top Tunes - Country Vol 10
DYEAR=1900
DGENRE=
TTITLE0=Sara Evans - Born To Fly
TTITLE1=Jo Dee Messina - Burn
TTITLE2=Carolyn Dawn Johnson - Complicated
TTITLE3=Jo Dee Messina - Downtime
TTITLE4=Carolyn Dawn Johnson - Georgia
TTITLE5=Alison Krauss - Ghost In This House
TTITLE6=Kershaw and Morgan - He Drinks Tequila
TTITLE7=Sara Evans - I Could Not Ask For More
TTITLE8=Trisha Yearwood - I Would Have Loved You Anyway
TTITLE9=Sherrie Austin - Joline
TTITLE10=Patty Loveless - Last Thing On My Mind
TTITLE11=Lee Ann Womack - Lord I Hope This Day Is Good
TTITLE12=Deanna Carter - Strawberry Wine
TTITLE13=Jo Dee Messina - That's The Way It Is
TTITLE14=Faith Hill - There You'll Be
TTITLE15=Cyndi Thomson - What I Really Meant To Say
TTITLE16=Jamie O'Neal - When I Think About Angles
TTITLE17=Jessica Andrews - Who I Am
TTITLE18=With vocals - Song
TTITLE19=With vocals - Song
EXTD=
EXTT0=
EXTT1=
EXTT2=
EXTT3=
EXTT4=
EXTT5=
EXTT6=
EXTT7=
EXTT8=
EXTT9=
EXTT10=
EXTT11=
EXTT12=
EXTT13=
EXTT14=
EXTT15=
EXTT16=
EXTT17=
EXTT18=
EXTT19=
PLAYORDER=
